<?xml version="1.0" encoding="UTF-8"?>
<svg id="Capa_1" data-name="Capa 1" xmlns="http://www.w3.org/2000/svg" viewBox="0 0 384 384">
  <defs>
    <style>
      .cls-1 {
        fill: #48a4de;
      }

      .cls-2 {
        fill: #4193d1;
      }

      .cls-3 {
        fill: #fefefe;
      }
    </style>
  </defs>
  <path class="cls-1" d="M161.26,.07h61.48c.35,.66,.99,.68,1.6,.7,12.21,.24,24.37,1.31,36.53,2.35,6.55,.56,13.15,.82,19.6,2.25,.29,.82,.52,1.67,.87,2.46,11.06,25.09,16.53,51.45,17.82,78.74,.48,10.11-.45,20.21-1.61,30.22-3,25.8-10.77,50.22-22.93,73.17-1.53,2.88-2.45,6.39-5.7,8.14-1.69-1.05-3.28-2.31-5.07-3.12-4.02-1.8-8.36-1.16-12.58-1.14-2.41,0-3.36-.64-2.99-3.22,2.67-18.4,5.3-36.82,7.82-55.24,.35-2.55,1.38-3.29,3.85-3.17,3.86,.19,7.75,.14,11.61,0,7.69-.29,13.46-5.96,13.91-13.5,.44-7.29-5.02-13.76-12.64-14.7-2.96-.36-5.99-.33-8.98-.2-2.6,.11-3.23-.93-2.85-3.33,.97-6.16,1.76-12.36,2.7-18.53,1.42-9.31-3.53-16.54-12.24-17.78-8.04-1.15-14.81,4.69-16,13.68-.99,7.55-2.1,15.08-3.13,22.63-.28,2.02-.74,3.36-3.38,3.34-18.36-.12-36.73-.1-55.09-.02-2.56,.01-3.25-.88-2.86-3.31,.99-6.29,1.78-12.61,2.73-18.9,1.36-8.98-3.69-16.18-12.28-17.41-7.92-1.14-14.75,4.58-15.94,13.3-1.01,7.42-2.17,14.82-3.06,22.26-.36,2.96-1.3,4.28-4.63,4.14-4.97-.21-10-.58-14.96,.3-6.95,1.24-11.96,7.59-11.58,14.49,.39,7.24,5.94,13.03,13.12,13.5,3.11,.2,6.25,.23,9.36,.06,2.88-.16,4.02,.59,3.55,3.76-2.68,18.28-5.22,36.58-7.73,54.88-.33,2.38-1.46,3.03-3.72,2.99-4.74-.1-9.51-.22-14.23,.16-7.66,.61-13.24,6.88-13.13,14.25,.11,7.44,5.8,13.43,13.45,13.97,3.23,.23,6.5,.19,9.74,.09,2.47-.08,3.31,.79,2.91,3.31-1.01,6.41-1.78,12.86-2.74,19.28-1.27,8.53,3.77,15.8,11.88,16.99,8.17,1.2,15.06-4.2,16.29-12.8,1.14-7.91,2.33-15.81,3.34-23.73,.3-2.36,1.29-3.07,3.6-3.06,18.24,.08,36.48,.07,54.72,.02,2.4,0,3.35,.67,2.93,3.27-.97,6.04-1.43,12.16-2.59,18.16-1.11,5.79,.37,10.58,4.17,14.86-9.06,6.44-18.32,12.56-28.14,17.79-28.35,15.13-58.77,22.71-90.72,24.21-14.6,.68-29.12-.91-43.55-3.27-3.38-.55-6.69-2.06-10.25-1.29-16.81-12.31-28.9-28.15-34.39-48.35-4.38-16.1-6.16-32.71-7.66-49.32-.37-4.13,.06-8.38-1.43-12.39v-49.48c.64-.36,.69-.99,.72-1.61,.65-15.7,2.95-31.21,5.22-46.75C10.45,57.82,26.65,35.59,52.14,19.49c12.15-7.68,25.58-11.23,39.73-13,17.19-2.15,34.42-3.67,51.69-4.99,5.9-.45,11.89,.03,17.7-1.44Z"/>
  <path class="cls-2" d="M268.91,198.11c3.25-1.76,4.18-5.26,5.7-8.14,12.16-22.96,19.93-47.37,22.93-73.17,1.16-10.01,2.09-20.1,1.61-30.22-1.28-27.29-6.76-53.65-17.82-78.74-.35-.8-.58-1.64-.87-2.46,2.48,.24,4.96,.48,7.44,.72,18.46,1.74,35.77,6.69,50.81,18.07,18.71,14.15,32.45,31.71,37.35,55.15,3.28,15.65,5.36,31.48,6.54,47.44,.26,3.51-.17,7.16,1.32,10.53v47.23c-.87,.41-.7,1.23-.74,1.95-.77,12.34-1.83,24.66-3.78,36.88-2,12.56-3.29,25.38-9.25,36.88-17.4,33.6-44.92,52.1-82.75,55.55-25.22,2.3-48.68,9.88-70.22,23.72-35.93,23.08-75.31,37.03-117.73,42.38-5.13,.65-10.39,.47-15.4,2.06h-12.75c-16.9-4.58-19.43-23.84-5.98-33.84,5.98-4.44,10.8-10.33,15.68-16.01,7.22-8.4,3.93-19.15-6.73-22.25-11.25-3.27-21.54-8.44-30.71-15.77,3.56-.77,6.87,.74,10.25,1.29,14.43,2.35,28.95,3.95,43.55,3.27,31.95-1.5,62.37-9.08,90.72-24.21,9.81-5.24,19.08-11.36,28.14-17.79,11.72,7.28,21.8,2.66,24.06-11.04,.71-4.28,1.36-8.56,2.03-12.85,3.79-3.79,7.38-7.74,10.46-12.14,2.11-.11,4.23-.22,6.34-.34,5.28-.3,9.3-2.75,11.81-7.38,3.25-6,1.88-11.55-2-16.76Z"/>
  <path class="cls-3" d="M84.04,383.92c5.01-1.59,10.27-1.41,15.4-2.06,42.42-5.35,81.79-19.3,117.73-42.38,21.55-13.84,45.01-21.42,70.22-23.72,37.83-3.46,65.36-21.96,82.75-55.55,5.96-11.5,7.25-24.32,9.25-36.88,1.95-12.22,3.01-24.54,3.78-36.88,.04-.71-.12-1.53,.74-1.95,0,65.47-.02,130.95,.07,196.42,0,2.57-.5,3.07-3.07,3.07-98.96-.08-197.92-.07-296.88-.07Z"/>
  <path class="cls-3" d="M43.56,296.06c9.17,7.33,19.46,12.49,30.71,15.77,10.66,3.1,13.95,13.85,6.73,22.25-4.88,5.68-9.7,11.57-15.68,16.01-13.45,9.99-10.91,29.25,5.98,33.84-22.74,0-45.48-.05-68.22,.07-2.57,.01-3.07-.51-3.07-3.07,.09-64.97,.07-129.95,.07-194.93,1.49,4.01,1.06,8.26,1.43,12.39,1.5,16.61,3.28,33.22,7.66,49.32,5.5,20.19,17.58,36.03,34.39,48.35Z"/>
  <path class="cls-3" d="M383.93,137.27c-1.49-3.37-1.06-7.02-1.32-10.53-1.18-15.96-3.26-31.79-6.54-47.44-4.91-23.44-18.65-41-37.35-55.15-15.04-11.38-32.35-16.33-50.81-18.07-2.48-.23-4.96-.48-7.44-.72-6.45-1.43-13.05-1.69-19.6-2.25-12.16-1.03-24.32-2.11-36.53-2.35-.62-.01-1.25-.03-1.6-.7C275.47,.07,328.2,.1,380.93,0c2.57,0,3.08,.5,3.07,3.07-.1,44.73-.07,89.47-.07,134.2Z"/>
  <path class="cls-3" d="M161.26,.07c-5.82,1.47-11.8,.98-17.7,1.44-17.27,1.32-34.5,2.84-51.69,4.99-14.15,1.77-27.58,5.32-39.73,13C26.65,35.59,10.45,57.82,6.02,88.17c-2.27,15.53-4.57,31.04-5.22,46.75-.03,.62-.08,1.25-.72,1.61C.08,92.09,.11,47.67,0,3.24,0,.49,.62,0,3.28,0,55.94,.1,108.6,.07,161.26,.07Z"/>
  <path class="cls-3" d="M268.91,198.11c3.88,5.2,5.25,10.76,2,16.76-2.51,4.63-6.52,7.08-11.81,7.38-2.11,.12-4.22,.23-6.34,.34-1.99-.1-3.98-.13-5.96-.31-2.11-.19-3.19,.48-3.34,2.8-.21,3.23-.76,6.43-1.16,9.65-.68,4.28-1.32,8.57-2.03,12.85-2.26,13.7-12.35,18.32-24.06,11.04-3.8-4.28-5.28-9.07-4.17-14.86,1.15-6,1.62-12.12,2.59-18.16,.42-2.6-.53-3.28-2.93-3.27-18.24,.05-36.48,.06-54.72-.02-2.32,0-3.3,.7-3.6,3.06-1.01,7.92-2.2,15.82-3.34,23.73-1.23,8.6-8.12,14-16.29,12.8-8.11-1.19-13.15-8.46-11.88-16.99,.96-6.42,1.73-12.87,2.74-19.28,.4-2.52-.44-3.39-2.91-3.31-3.24,.1-6.51,.13-9.74-.09-7.65-.54-13.34-6.53-13.45-13.97-.11-7.37,5.47-13.64,13.13-14.25,4.72-.38,9.49-.25,14.23-.16,2.26,.05,3.39-.6,3.72-2.99,2.51-18.3,5.05-36.6,7.73-54.88,.47-3.18-.67-3.92-3.55-3.76-3.11,.17-6.25,.14-9.36-.06-7.17-.47-12.72-6.26-13.12-13.5-.37-6.89,4.64-13.25,11.58-14.49,4.95-.88,9.99-.51,14.96-.3,3.33,.14,4.27-1.17,4.63-4.14,.89-7.43,2.05-14.84,3.06-22.26,1.19-8.71,8.02-14.44,15.94-13.3,8.59,1.24,13.64,8.43,12.28,17.41-.95,6.29-1.74,12.61-2.73,18.9-.38,2.43,.3,3.32,2.86,3.31,18.36-.08,36.73-.1,55.09,.02,2.64,.02,3.11-1.32,3.38-3.34,1.03-7.54,2.14-15.08,3.13-22.63,1.18-8.99,7.96-14.82,16-13.68,8.71,1.24,13.66,8.47,12.24,17.78-.94,6.17-1.73,12.36-2.7,18.53-.38,2.39,.25,3.44,2.85,3.33,2.99-.13,6.02-.16,8.98,.2,7.62,.94,13.07,7.41,12.64,14.7-.45,7.53-6.22,13.2-13.91,13.5-3.87,.15-7.75,.19-11.61,0-2.46-.12-3.5,.62-3.85,3.17-2.52,18.43-5.14,36.84-7.82,55.24-.37,2.58,.58,3.23,2.99,3.22,4.22-.01,8.56-.66,12.58,1.14,1.8,.8,3.39,2.06,5.07,3.12Zm-80.53-4.31c9.11,0,18.22-.04,27.33,.03,2.11,.02,3.52-.27,3.87-2.81,2.5-18.41,5.06-36.81,7.72-55.2,.43-2.94-.55-3.62-3.33-3.61-18.1,.1-36.19,.08-54.29,0-2.28,0-3.31,.62-3.64,3-2.52,18.41-5.11,36.81-7.77,55.2-.39,2.7,.51,3.47,3.15,3.43,8.98-.13,17.97-.05,26.96-.05Z"/>
  <path class="cls-1" d="M242.31,234.73c.4-3.21,.95-6.42,1.16-9.65,.15-2.32,1.23-2.99,3.34-2.8,1.98,.18,3.98,.21,5.96,.31-3.08,4.4-6.67,8.35-10.46,12.14Z"/>
  <path class="cls-1" d="M188.39,193.8c-8.99,0-17.97-.08-26.96,.05-2.64,.04-3.54-.73-3.15-3.43,2.66-18.39,5.25-36.79,7.77-55.2,.33-2.38,1.36-3.01,3.64-3,18.1,.08,36.19,.09,54.29,0,2.78-.01,3.76,.67,3.33,3.61-2.66,18.39-5.22,36.79-7.72,55.2-.34,2.54-1.75,2.83-3.87,2.81-9.11-.07-18.22-.03-27.33-.03Z"/>
</svg>